<svg xmlns="http://www.w3.org/2000/svg" width="18" height="10" fill="none" viewBox="0 0 18 10">
    <path fill="#fff" d="M1.707.293c-.39-.39-1.024-.39-1.414 0-.39.39-.39 1.024 0 1.414L1.707.293zm16 1.414c.39-.39.39-1.024 0-1.414-.39-.39-1.024-.39-1.414 0l1.414 1.414zm-7.293 5.879l-.707-.707.707.707zM9 8.586v1-1zM.293 1.707l6.586 6.586 1.414-1.414L1.707.293.293 1.707zM11.12 8.293l6.586-6.586L16.293.293 9.707 6.879l1.414 1.414zm-4.242 0c.313.313.618.62.902.838.307.234.705.455 1.219.455v-2c.1 0 .124.054-.006-.045-.152-.117-.348-.309-.701-.662L6.879 8.293zm2.828-1.414c-.353.353-.549.545-.701.662-.13.099-.105.045-.006.045v2c.514 0 .912-.22 1.219-.455.284-.217.589-.525.902-.838L9.707 6.879z"/>
</svg>
