<svg xmlns="http://www.w3.org/2000/svg" width="312" height="312" fill="none" viewBox="0 0 312 312">
    <g fill="#FAFF00" clip-path="url(#prefix__clip0)">
        <path d="M34.588 269.634c-4.288 0-7.778 3.49-7.778 7.778 0 4.288 3.49 7.778 7.778 7.778 4.288 0 7.778-3.49 7.778-7.778 0-4.288-3.49-7.778-7.778-7.778zM34.588 25.927c-4.288 0-7.778 3.49-7.778 7.778 0 4.288 3.49 7.778 7.778 7.778 4.288 0 7.778-3.49 7.778-7.778 0-4.288-3.49-7.778-7.778-7.778zM166.813 217.781h-20.741c-5.72 0-10.371 4.651-10.371 10.371v20.741c0 5.719 4.651 10.371 10.371 10.371h20.741c5.719 0 10.37-4.651 10.37-10.371v-20.741c0-5.72-4.651-10.371-10.37-10.371zm-20.742 31.112v-20.741h20.741l.005 20.741h-20.746zM278.295 25.927c-4.288 0-7.777 3.49-7.777 7.778 0 4.288 3.489 7.778 7.777 7.778 4.289 0 7.778-3.49 7.778-7.778 0-4.288-3.489-7.778-7.778-7.778z"/>
        <path d="M286.073 0H26.81C12.514 0 .884 11.63.884 25.927V285.19c0 14.296 11.63 25.926 25.926 25.926h259.264c14.296 0 25.926-11.63 25.926-25.926V25.926C312 11.63 300.37 0 286.073 0zm15.556 285.19c0 8.576-6.979 15.555-15.556 15.555H26.81c-8.576 0-15.555-6.979-15.555-15.555V25.926c0-8.576 6.979-15.555 15.555-15.555h259.264c8.576 0 15.556 6.98 15.556 15.556V285.19h-.001z"/>
        <path d="M278.295 269.634c-4.288 0-7.777 3.49-7.777 7.778 0 4.288 3.489 7.778 7.777 7.778 4.289 0 7.778-3.49 7.778-7.778 0-4.288-3.489-7.778-7.778-7.778zM156.442 51.852c-34.233 0-60.652 21.996-67.31 56.043-.483 2.447.85 4.884 3.158 5.813l25.926 10.37c1.328.524 2.811.483 4.112-.114 1.292-.596 2.287-1.706 2.738-3.064 3.427-10.293 12.071-27.565 31.376-27.565 17.158 0 31.111 13.953 31.111 31.112 0 12.019-8.234 18.008-21.669 26.782-2.421 1.581-4.9 3.199-7.358 4.91-14.804 10.293-22.826 19.035-22.826 35.716v5.185c0 5.72 4.651 10.371 10.371 10.371h20.741c5.818 0 10.371-4.552 10.371-10.371 0-7.902 6.839-12.895 17.998-20.378 15.078-10.116 33.854-22.711 33.854-52.215.001-40.03-32.563-72.595-72.593-72.595zm32.957 116.198c-11.101 7.451-22.586 15.156-22.478 28.98 0 0-.031.01-.108.01h-20.741v-5.185c0-11.189 4.122-17.293 18.371-27.202 2.375-1.654 4.771-3.215 7.115-4.744 12.963-8.462 26.367-17.215 26.367-35.462 0-22.872-18.61-41.482-41.483-41.482-17.329 0-31.428 10.676-39.294 29.514l-16.899-6.761c6.933-26.948 28.12-43.495 56.193-43.495 34.311 0 62.223 27.913 62.223 62.224 0 23.971-14.876 33.952-29.266 43.603z"/>
    </g>
    <defs>
        <clipPath id="prefix__clip0">
            <path fill="#fff" d="M0 0H311.116V311.116H0z" transform="translate(.884)"/>
        </clipPath>
    </defs>
</svg>
