<svg xmlns="http://www.w3.org/2000/svg" width="24" height="25" fill="none" viewBox="0 0 24 25">
    <path fill="#E21C1C" fill-rule="evenodd" d="M21.12 4.697l1.414.172-.636 1.327-.931 1.943c-.037.137-.102.257-.197.414-.04.065-.177.273-.183.283-.037.056-.063.1-.082.137v2.488c0 6.366-5.915 10.412-11.501 10.412-1.143 0-2.012-.057-3.006-.283-1.637-.372-2.855-1.112-3.412-2.404l-.574-1.33 1.395-.134c1.261-.12 2.355-.371 3.195-.706-2.306-.387-3.598-1.442-3.598-3.423v-1.041h1c.22 0 .417-.019.595-.053C2.868 11.42 2 9.692 2 7.294v-.212c-.007-1.208.055-1.854.373-2.679.204-.528.498-1.017.894-1.465l.755-.854.733.873c2.418 2.879 4.808 4.625 7.248 4.836.01-2.656 1.938-4.666 4.5-4.666 1.195 0 2.279.473 3.13 1.324.467.1.962.182 1.485.246zM18.909 6.42l-.307-.073-.212-.242c-.512-.585-1.154-.894-1.886-.894-1.463 0-2.5 1.086-2.5 2.604 0 .248-.006.404-.036.609-.118.818-.558 1.474-1.464 1.474-2.998 0-5.703-1.673-8.34-4.53-.136.43-.168.873-.164 1.703l.001.223c0 2.133.83 3.3 2.794 3.95l.698.232v.761c0 .924-.84 1.794-2.07 2.184.563.445 1.716.686 3.58.686h1v1.041c0 1.493-1.645 2.661-4.132 3.271.81.26 1.89.37 3.133.37 4.614 0 9.5-3.341 9.5-8.328V8.857c0-.306.086-.572.227-.848.055-.108.116-.211.191-.329l.109-.166.08-.165.384-.803c-.2-.039-.395-.081-.586-.126z" clip-rule="evenodd"/>
</svg>
