<svg xmlns="http://www.w3.org/2000/svg" width="24" height="25" fill="none" viewBox="0 0 24 25">
    <path fill="#E21C1C" fill-rule="evenodd" d="M16 2.084H8c-3.314 0-6 2.798-6 6.25v8.333c0 3.452 2.686 6.25 6 6.25h8c3.314 0 6-2.798 6-6.25V8.334c0-3.452-2.686-6.25-6-6.25zM4 8.334c0-2.301 1.79-4.167 4-4.167h8c2.21 0 4 1.866 4 4.167v8.334c0 2.3-1.79 4.166-4 4.166H8c-2.21 0-4-1.865-4-4.166V8.334zm8 9.375c-2.761 0-5-2.332-5-5.208 0-2.877 2.239-5.209 5-5.209s5 2.332 5 5.209c0 2.876-2.239 5.208-5 5.208zm0-2.083c1.657 0 3-1.4 3-3.125 0-1.726-1.343-3.125-3-3.125S9 10.774 9 12.5c0 1.725 1.343 3.125 3 3.125zm6-8.334c0 .575-.448 1.042-1 1.042s-1-.467-1-1.042.448-1.042 1-1.042 1 .467 1 1.042z" clip-rule="evenodd"/>
</svg>
