<svg xmlns="http://www.w3.org/2000/svg" width="18" height="10" fill="none" viewBox="0 0 18 10">
    <path fill="#fff" d="M16.293 9.707c.39.39 1.024.39 1.414 0 .39-.39.39-1.024 0-1.414l-1.414 1.414zm-16-1.414c-.39.39-.39 1.024 0 1.414.39.39 1.024.39 1.414 0L.293 8.293zm7.293-5.879l.707.707-.707-.707zm1.414-1v-1 1zm8.707 6.879l-6.586-6.586-1.414 1.414 6.586 6.586 1.414-1.414zM6.88 1.707L.293 8.293l1.414 1.414 6.586-6.586-1.414-1.414zm4.242 0c-.313-.313-.618-.62-.902-.838C9.912.635 9.514.414 9 .414v2c-.1 0-.124-.054.006.045.152.117.348.309.701.662l1.414-1.414zM8.293 3.121c.353-.353.549-.545.701-.662.13-.099.105-.045.006-.045v-2c-.514 0-.912.22-1.219.455-.284.217-.589.525-.902.838l1.414 1.414z"/>
</svg>
